<?xml version="1.0" standalone="no"?>
<!DOCTYPE svg PUBLIC "-//W3C//DTD SVG 20010904//EN"
 "http://www.w3.org/TR/2001/REC-SVG-20010904/DTD/svg10.dtd">
<svg version="1.0" xmlns="http://www.w3.org/2000/svg"
 width="1280.000000pt" height="1280.000000pt" viewBox="0 0 1280.000000 1280.000000"
 preserveAspectRatio="xMidYMid meet">
<metadata>
Created by potrace 1.15, written by Peter Selinger 2001-2017
</metadata>
<g transform="translate(0.000000,1280.000000) scale(0.100000,-0.100000)"
fill="#ffffff" stroke="none">
<path d="M6095 12794 c-1243 -66 -2412 -471 -3404 -1179 -1433 -1023 -2376
-2570 -2625 -4305 -49 -339 -60 -507 -60 -910 0 -403 11 -571 60 -910 145
-1015 526 -1967 1120 -2800 1019 -1430 2570 -2375 4304 -2624 339 -49 507 -60
910 -60 403 0 571 11 910 60 1014 145 1971 528 2799 1119 1433 1023 2376 2570
2625 4305 49 339 60 507 60 910 0 403 -11 571 -60 910 -216 1510 -965 2892
-2110 3897 -1031 904 -2281 1440 -3659 1568 -162 15 -716 27 -870 19z m831
-1419 c1090 -104 2114 -591 2943 -1400 423 -413 754 -870 1016 -1400 181 -366
278 -640 386 -1089 103 -431 128 -616 136 -1013 6 -298 -2 -460 -33 -693 -124
-920 -532 -1830 -1155 -2575 -475 -567 -1063 -1025 -1704 -1327 -178 -84 -224
-103 -480 -198 -442 -165 -770 -242 -1195 -281 -172 -16 -605 -16 -775 0
-1070 100 -2083 532 -2930 1249 -143 121 -504 487 -615 622 -287 352 -495 681
-667 1055 -77 168 -246 601 -288 740 -146 482 -205 954 -184 1460 77 1791
1218 3547 2845 4375 535 272 1109 433 1684 470 350 23 807 25 1016 5z"/>
<path d="M7499 8100 l-1916 -958 -956 -1914 c-527 -1052 -957 -1916 -957
-1919 0 -4 863 425 1917 952 l1918 959 958 1916 c527 1054 957 1917 955 1919
-2 2 -865 -428 -1919 -955z m-1255 -2219 l609 -609 -1221 -611 -1222 -611 610
1220 c336 671 611 1220 613 1220 1 0 276 -274 611 -609z"/>
</g>
</svg>
