<?xml version="1.0" encoding="UTF-8" standalone="no"?>
<svg
   version="1.0"
   width="1280.000000pt"
   height="1231.000000pt"
   viewBox="0 0 1280.000000 1231.000000"
   preserveAspectRatio="xMidYMid meet"
   id="svg27"
   sodipodi:docname="unknown_profile_1.svg"
   inkscape:version="1.1 (c68e22c387, 2021-05-23)"
   xmlns:inkscape="http://www.inkscape.org/namespaces/inkscape"
   xmlns:sodipodi="http://sodipodi.sourceforge.net/DTD/sodipodi-0.dtd"
   xmlns="http://www.w3.org/2000/svg"
   xmlns:svg="http://www.w3.org/2000/svg">
  <defs
     id="defs31">
    <clipPath
       clipPathUnits="userSpaceOnUse"
       id="clipPath443">
      <path
         id="lpe_path-effect451"
         style="fill:#a0a0a0;stroke:none;stroke-width:24.338"
         class="powerclip"
         d="M -5,-5 H 12805 V 12311.09 H -5 Z m 6165.9547,1114.4917 c -296.8315,81.2235 -527.9087,273.1373 -650.8575,540.5513 -73.6756,160.245 -77.1438,180.8557 -77.1438,458.4637 0,277.4535 3.5027,298.305 76.9919,458.3295 91.2799,198.7635 270.6979,386.2643 469.7951,490.9575 124.4795,65.4563 156.5245,71.0715 405.5848,71.0715 243.6845,0 283.6239,-6.6269 403.8799,-67.0132 669.5177,-336.1987 760.5657,-1346.3063 161.039,-1786.6042 -227.7525,-167.2636 -542.341,-233.3295 -789.2894,-165.7561 z" />
    </clipPath>
  </defs>
  <sodipodi:namedview
     id="namedview29"
     pagecolor="#505050"
     bordercolor="#ffffff"
     borderopacity="1"
     inkscape:pageshadow="0"
     inkscape:pageopacity="0"
     inkscape:pagecheckerboard="1"
     inkscape:document-units="pt"
     showgrid="false"
     inkscape:zoom="0.17426362"
     inkscape:cx="407.42869"
     inkscape:cy="674.26579"
     inkscape:window-width="1920"
     inkscape:window-height="1017"
     inkscape:window-x="-8"
     inkscape:window-y="-8"
     inkscape:window-maximized="1"
     inkscape:current-layer="svg27" />
  <metadata
     id="metadata21">
Created by potrace 1.15, written by Peter Selinger 2001-2017
</metadata>
  <path
     id="path2615"
     style="color:#000000;fill:#ffffff;stroke:#000000;stroke-width:0.133333;stroke-opacity:1;-inkscape-stroke:none"
     d="M 864.20312 6.4042969 C 842.60312 6.1376302 822.73646 6.2723958 820.20312 6.5390625 C 817.66979 6.8057292 809.00247 7.7390625 800.86914 8.5390625 C 707.53581 17.472396 610.20307 55.604167 534.20312 112.9375 C 503.13646 136.27083 463.00221 174.93828 439.93555 203.73828 C 345.40221 321.60492 304.46992 469.6056 325.66992 617.07227 C 343.80326 743.2056 406.20313 859.33867 500.20312 942.13867 C 519.00313 958.67201 545.53555 978.80469 563.93555 990.80469 L 576.33594 998.80469 L 569.26953 1000.4043 C 550.3362 1004.8043 506.33516 1017.0711 485.53516 1023.8711 C 263.26849 1095.6044 99.403125 1228.0048 34.203125 1388.2715 C 14.203125 1437.4715 2.8691406 1493.3389 2.8691406 1543.0723 C 2.8691406 1557.0723 7.2686198 1628.1379 9.0019531 1641.3379 L 9.6699219 1647.0723 L 856.20312 1647.0723 L 1702.7363 1647.0723 L 1703.4023 1641.3379 C 1705.1357 1628.2712 1709.5352 1557.2049 1709.5352 1543.7383 C 1709.5352 1501.6049 1701.5362 1454.6723 1687.2695 1413.0723 C 1629.1362 1242.9389 1465.1364 1102.9376 1234.2031 1026.4043 C 1208.6031 1017.871 1159.4018 1003.7389 1145.5352 1001.0723 C 1143.0018 1000.5389 1140.0701 999.73841 1139.1367 999.20508 C 1138.2034 998.67174 1144.6021 993.47122 1156.4688 985.33789 C 1206.6021 951.47122 1248.6021 911.47161 1284.4688 863.73828 C 1297.4021 846.53828 1309.1368 828.80547 1316.6035 815.60547 C 1319.8035 809.87214 1325.4025 800.00495 1328.8691 793.73828 C 1337.9358 778.00495 1350.469 750.00534 1359.4023 726.13867 C 1391.669 638.80534 1400.3365 542.93893 1384.2031 449.07227 C 1374.3365 391.6056 1351.9363 329.07172 1322.7363 277.20508 C 1311.5363 257.47174 1289.535 225.07161 1274.0684 205.73828 C 1255.6684 182.67161 1215.2698 142.27109 1192.2031 123.87109 C 1173.5365 108.93776 1140.7365 86.672005 1122.2031 76.138672 C 1071.9365 47.738672 1017.0025 27.071615 960.86914 15.738281 C 927.53581 8.9382813 906.20313 6.9376302 864.20312 6.4042969 z M 858.04688 231.5 C 879.10513 231.56537 910.83103 232.45406 921.2207 233.5 C 1024.792 243.63399 1109.7686 280.8237 1171.7812 343.11523 C 1207.5756 379.00258 1232.0275 418.422 1246.9961 464.44336 C 1269.1235 532.03431 1265.6847 609.38672 1237.793 668.70312 C 1228.4957 688.59923 1209.6214 718.07183 1193.0723 738.80469 C 1175.4075 760.83915 1142.5892 792.17175 1051.1973 874.35938 C 1015.5888 906.3419 995.41411 927.2603 984.44336 943.4375 C 978.02827 952.82773 970.77473 968.91161 967.42773 981.46289 C 965.66125 987.87798 961.85012 1003.4979 958.875 1016.3281 C 952.64585 1043.9409 949.2994 1055.2836 944.46484 1065.6035 C 926.98603 1103.5363 894.90959 1124.0823 850.00391 1126.2207 C 815.32519 1127.8942 783.62121 1116.1798 760.75 1093.3086 C 742.24849 1074.8071 732.39467 1052.6802 728.67578 1020.9766 C 726.53741 1002.754 728.58343 963.79907 732.95312 938.13867 C 741.04174 891.55949 765.12099 841.26087 797.56836 803.32812 C 815.69799 782.22338 848.98194 750.05377 900.76758 703.93945 C 962.0364 649.4576 973.56508 637.93047 986.95312 617.94141 C 1002.7584 594.41938 1007.6855 579.63531 1007.6855 556.11328 C 1007.6855 522.08537 994.11236 492.61495 968.08008 469.92969 C 941.76889 447.05847 911.08681 436.73746 869.15625 436.64453 C 833.9197 436.64453 806.58645 442.59403 783.99414 455.23828 C 774.78987 460.44473 758.05503 476.90107 749.22266 489.35938 C 731.186 515.01976 717.14707 544.39947 702.27148 587.25977 C 691.11479 619.70714 680.88737 637.83685 664.61719 654.29297 C 645.09299 674.09609 622.68706 684.32413 594.14453 686.64844 C 557.97825 689.53058 524.9721 678.1861 499.68359 654.19922 C 473.46537 629.28261 460.07812 600.3696 460.07812 568.66602 C 460.07813 519.94846 475.97652 468.34771 506.56445 417.67773 C 542.07992 358.73321 597.86329 309.0861 666.75586 275.24414 C 719.00637 249.58375 776.27788 235.36029 841.73047 231.73438 C 845.19369 231.54843 851.02746 231.47821 858.04688 231.5 z M 851.43359 1149.9062 C 859.39436 1149.883 867.29668 1150.2547 872.41016 1151.0449 C 902.25432 1155.6935 924.75385 1166.7566 945.76562 1186.9316 C 961.84985 1202.3651 973.75013 1220.8664 980.07227 1240.3906 C 989.7414 1270.0488 989.27698 1305.7504 978.95703 1335.2227 C 968.17223 1365.7176 945.39461 1390.6349 913.87695 1406.5332 C 888.86737 1419.0844 860.69643 1423.7329 832.33984 1419.8281 C 814.86103 1417.4108 803.89006 1414.1562 788.64258 1406.9043 C 761.77354 1393.9811 741.13446 1374.5509 728.95508 1350.75 C 720.30865 1333.8289 716.58991 1319.8833 714.73047 1297.7559 C 711.29048 1256.662 723.74736 1220.3101 750.98828 1192.2324 C 773.67356 1168.8964 798.49875 1155.9732 830.10938 1151.1387 C 835.45529 1150.3484 843.47283 1149.9295 851.43359 1149.9062 z "
     transform="scale(0.75)" />
</svg>
