<svg fill="#228BE6" xmlns="http://www.w3.org/2000/svg"  viewBox="0 0 50 50" width="50px" height="50px"><path d="M 7 2 C 4.199219 2 2 4.199219 2 7 L 2 34 C 2 36.800781 4.199219 39 7 39 L 34 39 C 36.800781 39 39 36.800781 39 34 L 39 7 C 39 6.5 38.914063 6 38.8125 5.5 L 19.09375 27.40625 L 9.40625 18.6875 L 10.6875 17.1875 L 19 24.5 L 37.6875 3.6875 C 36.789063 2.6875 35.5 2 34 2 Z M 41 11 L 41 35 C 41 38.300781 38.300781 41 35 41 L 11 41 L 11 43 C 11 45.800781 13.199219 48 16 48 L 43 48 C 45.800781 48 48 45.800781 48 43 L 48 16 C 48 13.199219 45.800781 11 43 11 Z"/></svg>