<?xml version="1.0" standalone="no"?>
<!DOCTYPE svg PUBLIC "-//W3C//DTD SVG 20010904//EN"
 "http://www.w3.org/TR/2001/REC-SVG-20010904/DTD/svg10.dtd">
<svg version="1.0" xmlns="http://www.w3.org/2000/svg"
 width="264.000000pt" height="263.000000pt" viewBox="0 0 264.000000 263.000000"
 preserveAspectRatio="xMidYMid meet">

<g transform="translate(0.000000,263.000000) scale(0.100000,-0.100000)"
fill="#000000" stroke="none">
<path d="M1145 2484 c-563 -59 -994 -341 -1071 -702 -7 -37 -14 -77 -14 -89
l0 -23 1235 0 1235 0 0 23 c-1 48 -29 148 -59 213 -129 276 -466 489 -886 560
-89 14 -363 26 -440 18z m-56 -120 c46 -9 42 -41 -6 -50 -64 -12 -122 25 -71
45 29 12 38 13 77 5z m610 -83 c20 -13 0 -37 -45 -51 -69 -23 -102 16 -36 43
43 19 62 20 81 8z m-915 -150 c11 -17 -32 -42 -74 -43 -52 -1 -73 17 -46 38
21 15 111 19 120 5z m585 -35 c27 -32 -76 -51 -115 -21 -16 13 -17 16 -4 25
23 15 106 12 119 -4z m875 -26 c15 -15 -6 -31 -51 -37 -68 -9 -111 31 -52 49
30 9 89 2 103 -12z m-1238 -131 c12 -20 -23 -42 -75 -47 -42 -4 -51 -2 -51 11
0 34 108 64 126 36z m924 -32 c14 -7 26 -20 28 -30 3 -13 -4 -17 -27 -17 -51
0 -100 25 -101 53 0 12 73 8 100 -6z m-1462 -57 c39 -24 43 -50 7 -50 -30 0
-90 23 -99 39 -21 34 41 42 92 11z m976 -26 c9 -3 16 -12 16 -19 0 -25 -83
-35 -121 -14 -47 25 48 55 105 33z"/>
<path d="M34 1586 c-39 -33 -39 -89 0 -122 l27 -24 1241 2 1240 3 19 24 c27
33 25 86 -6 116 l-24 25 -1235 0 -1235 0 -27 -24z"/>
<path d="M75 1363 c-16 -8 -40 -25 -52 -36 -22 -20 -23 -26 -23 -222 0 -196 1
-202 23 -223 12 -11 40 -29 62 -39 38 -17 108 -18 1180 -21 798 -2 1156 1
1193 9 64 13 128 59 156 114 16 31 22 63 24 141 4 119 -6 165 -50 218 -48 58
-95 76 -207 76 l-94 0 -81 -78 c-140 -135 -243 -193 -345 -194 -82 -1 -140 29
-224 116 -115 119 -145 128 -245 75 -56 -29 -61 -30 -93 -16 -19 8 -52 33 -74
56 l-39 41 -541 0 c-473 -1 -544 -3 -570 -17z"/>
<path d="M63 702 c20 -212 131 -335 353 -391 145 -36 249 -43 769 -48 836 -9
1023 13 1192 136 80 58 135 171 149 304 l7 67 -629 0 c-680 0 -799 -7 -1004
-54 -172 -40 -277 -88 -363 -165 -30 -28 -57 -51 -60 -51 -3 0 -7 10 -11 23
-8 35 -81 142 -133 198 l-46 49 -115 0 -115 0 6 -68z"/>
</g>
</svg>
