<svg xmlns="http://www.w3.org/2000/svg" width="1121" height="1819" viewBox="0 0 1121 1819" version="1.1">
	<path d="M 842.737 27.952 C 840.177 29.575, 836.670 32.838, 834.944 35.202 C 831.676 39.676, 819.818 62.641, 818.525 67 C 818.117 68.375, 815.184 74.900, 812.007 81.500 C 808.830 88.100, 805.718 95.115, 805.091 97.089 C 804.464 99.062, 802.805 102.212, 801.403 104.089 C 800.002 105.965, 798.054 109.075, 797.075 111 C 794.373 116.315, 788.457 125.815, 783.734 132.426 C 777.856 140.653, 755.716 163.331, 748.664 168.348 C 739.372 174.959, 728.795 181.460, 725 182.893 C 723.075 183.620, 719.463 185.265, 716.974 186.548 C 714.484 187.831, 707.103 190.686, 700.571 192.892 C 687.792 197.208, 684.541 199.460, 678.765 208 C 677.091 210.475, 675.222 212.950, 674.611 213.500 C 673.118 214.844, 666.294 225.028, 664.110 229.172 C 662.041 233.097, 656.747 241.864, 653.043 247.500 C 651.598 249.700, 648.914 254.650, 647.079 258.500 C 645.244 262.350, 642.511 267.300, 641.005 269.500 C 636.156 276.582, 626.881 296.239, 624.018 305.500 C 615.991 331.465, 613.236 345.651, 611.184 371.598 C 610.701 377.701, 609.900 383.326, 609.403 384.098 C 608.907 384.869, 608.161 389.550, 607.747 394.500 C 606.502 409.371, 605.400 418.250, 604.210 423 C 603.589 425.475, 602.562 430.200, 601.927 433.500 C 600.394 441.474, 597.074 451.908, 595.096 454.971 C 594.218 456.331, 592.348 458.581, 590.941 459.971 C 589.533 461.362, 587.319 464.075, 586.021 466 C 584.723 467.925, 580.441 472.875, 576.505 477 C 572.569 481.125, 568.543 485.850, 567.558 487.500 C 566.574 489.150, 563.258 492.525, 560.190 495 C 557.122 497.475, 542.886 510.975, 528.556 525 C 514.225 539.025, 499.710 552.461, 496.301 554.857 C 489.380 559.720, 475.528 567.057, 469.664 568.964 C 467.554 569.650, 463.682 572.077, 461.058 574.356 C 458.435 576.635, 454.086 580.172, 451.394 582.215 C 434.737 594.858, 429.163 598.938, 417.500 607.026 C 410.350 611.984, 400.450 618.966, 395.500 622.542 C 390.550 626.118, 379.141 634.096, 370.146 640.271 C 348.213 655.330, 333.210 665.805, 327.889 669.775 C 325.475 671.576, 319.675 675.936, 315 679.464 C 310.325 682.992, 303.350 688.218, 299.500 691.076 C 295.650 693.935, 290.475 698.167, 288 700.482 C 285.525 702.798, 281.925 705.742, 280 707.026 C 268.541 714.671, 229.209 754.268, 217.947 769.500 C 216.320 771.700, 212.949 775.975, 210.456 779 C 203.912 786.941, 188.151 810.499, 184.762 817.405 C 183.169 820.653, 180.841 824.703, 179.590 826.405 C 176.727 830.298, 170.649 842.316, 169.073 847.196 C 168.417 849.229, 166.501 853.729, 164.815 857.196 C 157.838 871.542, 149.585 894.475, 145.451 911 C 144.557 914.575, 142.867 920.650, 141.695 924.500 C 140.524 928.350, 139.504 932.175, 139.429 933 C 139.354 933.825, 138.054 938.550, 136.541 943.500 C 135.028 948.450, 133.423 954.075, 132.974 956 C 132.525 957.925, 131.615 961.525, 130.952 964 C 129.325 970.069, 128.092 978.577, 127.183 990 C 126.767 995.225, 125.996 1000.175, 125.469 1001 C 121.975 1006.473, 121.987 1117.664, 125.483 1123 C 126.023 1123.825, 126.815 1129.675, 127.243 1136 C 129.089 1163.314, 129.586 1168.580, 130.445 1169.942 C 130.946 1170.735, 131.750 1175.235, 132.233 1179.942 C 134.307 1200.176, 134.785 1203.649, 135.863 1206.315 C 136.488 1207.863, 137 1211.746, 137 1214.943 C 137 1218.140, 137.651 1222.315, 138.448 1224.220 C 139.244 1226.126, 139.657 1228.597, 139.365 1229.713 C 139.073 1230.828, 139.370 1233.487, 140.025 1235.620 C 141.150 1239.289, 141.807 1244.692, 143.841 1267 C 144.317 1272.225, 145.223 1277.767, 145.853 1279.315 C 146.484 1280.863, 147 1285.222, 147 1289 C 147 1292.778, 147.492 1297.137, 148.093 1298.685 C 148.694 1300.233, 149.135 1305.775, 149.073 1311 C 149.011 1316.225, 149.492 1322.075, 150.141 1324 C 150.791 1325.925, 151.685 1334.250, 152.129 1342.500 C 153.448 1367.026, 154.592 1379.329, 155.832 1382.315 C 157.317 1385.893, 157.355 1401.973, 155.887 1405.685 C 155.275 1407.233, 154.612 1411.027, 154.413 1414.116 C 154.215 1417.205, 153.591 1420.947, 153.026 1422.431 C 152.462 1423.916, 152 1426.352, 152 1427.846 C 152 1431.854, 138.915 1470.098, 134.498 1479 C 133.816 1480.375, 132.692 1483.300, 132 1485.500 C 131.308 1487.700, 130.133 1490.625, 129.389 1492 C 125.766 1498.695, 113.027 1535.767, 112.037 1542.500 C 111.632 1545.250, 110.311 1551.061, 109.102 1555.413 C 107.049 1562.800, 106.931 1564.929, 107.325 1587.413 C 107.723 1610.160, 108.178 1615.174, 110.820 1626 C 111.424 1628.475, 112.438 1633.200, 113.072 1636.500 C 114.330 1643.040, 120.549 1662.718, 121.900 1664.434 C 122.362 1665.020, 123.297 1667.300, 123.978 1669.500 C 125.926 1675.794, 136.428 1696.288, 141.183 1703.073 C 150.792 1716.787, 151.984 1718.393, 154.776 1721.385 C 156.375 1723.098, 158.760 1726.075, 160.078 1728 C 163.235 1732.613, 169.317 1738.618, 175.500 1743.227 C 183.463 1749.162, 200.949 1761, 201.760 1761.004 C 202.167 1761.007, 204.525 1762.382, 207 1764.061 C 212.159 1767.560, 225.298 1774.379, 229 1775.480 C 230.375 1775.888, 232.850 1776.814, 234.500 1777.537 C 246.562 1782.821, 274.707 1792.474, 289.500 1796.400 C 309.649 1801.748, 316.484 1803.199, 329.771 1804.950 C 333.770 1805.476, 337.595 1806.258, 338.271 1806.687 C 339.447 1807.434, 342.635 1807.888, 360.500 1809.858 C 364.900 1810.343, 369.767 1811.249, 371.315 1811.870 C 372.881 1812.498, 379.650 1813, 386.565 1813 C 394.188 1813, 399 1813.387, 399 1814 C 399 1814.655, 418.480 1815, 455.441 1815 C 491.990 1815, 512.100 1814.648, 512.500 1814 C 512.856 1813.424, 518.155 1813, 524.994 1813 C 531.620 1813, 538.114 1812.493, 539.685 1811.853 C 541.233 1811.223, 546.775 1810.318, 552 1809.843 C 568.858 1808.310, 576.399 1807.362, 581.250 1806.169 C 590.770 1803.826, 595.085 1803, 597.764 1803.007 C 601.252 1803.016, 620.131 1798.472, 635.571 1793.908 C 637.260 1793.409, 639.410 1793, 640.348 1793 C 641.286 1793, 645.529 1791.921, 649.777 1790.602 C 677.501 1781.992, 691.008 1777.574, 694.500 1775.974 C 696.700 1774.965, 702.775 1772.496, 708 1770.487 C 713.225 1768.477, 719.564 1765.520, 722.088 1763.916 C 724.611 1762.312, 727.090 1761, 727.598 1761 C 729.357 1761, 734.019 1755.891, 735.504 1752.337 C 736.727 1749.408, 736.771 1748.305, 735.748 1746.217 C 734.090 1742.832, 728.532 1740.092, 720.808 1738.852 C 717.339 1738.295, 712.195 1737.472, 709.378 1737.023 C 706.561 1736.574, 703.328 1735.711, 702.194 1735.104 C 698.873 1733.326, 646.574 1733.643, 641.500 1735.471 C 639.300 1736.264, 635.302 1736.932, 632.616 1736.956 C 629.930 1736.980, 625.880 1737.479, 623.616 1738.063 C 615.719 1740.104, 601.477 1744.158, 598.500 1745.214 C 596.850 1745.799, 590.100 1746.668, 583.500 1747.145 C 556.401 1749.105, 550.369 1749.726, 547.685 1750.836 C 546.078 1751.500, 539.718 1752, 532.869 1752 C 526.100 1752, 519.978 1752.476, 518.826 1753.093 C 516.239 1754.478, 457.534 1754.356, 454.926 1752.961 C 453.939 1752.432, 449.531 1752, 445.131 1752 C 440.730 1752, 435.863 1751.465, 434.315 1750.812 C 432.767 1750.158, 423.400 1749.284, 413.500 1748.870 C 392.825 1748.003, 379.052 1746.768, 377.183 1745.613 C 376.470 1745.173, 373.550 1744.430, 370.694 1743.964 C 360.267 1742.260, 348.823 1739.275, 342 1736.480 C 338.975 1735.241, 328.625 1731.640, 319 1728.479 C 309.375 1725.318, 301.050 1722.382, 300.500 1721.955 C 299.950 1721.528, 295.450 1719.833, 290.500 1718.189 C 285.550 1716.545, 280.150 1714.483, 278.500 1713.606 C 276.850 1712.730, 274.987 1712.010, 274.359 1712.006 C 272.486 1711.996, 254.892 1700.110, 249.377 1695.128 C 246.559 1692.582, 241.773 1688.475, 238.743 1686 C 235.712 1683.525, 232.416 1680.150, 231.419 1678.500 C 230.422 1676.850, 226.657 1672.319, 223.053 1668.431 C 216.827 1661.714, 207 1648.909, 207 1647.512 C 207 1647.154, 205.715 1644.979, 204.145 1642.680 C 199.450 1635.807, 196.281 1624.477, 194.864 1609.500 C 193.010 1589.892, 193.376 1585.078, 197.751 1571.504 C 200.206 1563.886, 200.803 1563.025, 210.414 1553.243 C 221.786 1541.668, 222.945 1541.143, 239 1540.278 C 246.950 1539.850, 251.981 1540.462, 263 1543.199 C 268.263 1544.507, 276.924 1545.682, 289.518 1546.796 C 294.477 1547.235, 299.202 1548.018, 300.018 1548.534 C 301.747 1549.630, 316.364 1550.792, 341 1551.791 C 350.625 1552.181, 359.175 1552.950, 360 1553.500 C 365.012 1556.842, 718.988 1556.842, 724 1553.500 C 724.825 1552.950, 734.725 1552.170, 746 1551.766 C 776.706 1550.666, 792.328 1549.612, 794 1548.526 C 794.825 1547.991, 800.450 1547.184, 806.500 1546.733 C 829.463 1545.021, 834.544 1544.472, 835.990 1543.543 C 836.809 1543.017, 841.084 1542.250, 845.490 1541.839 C 853.950 1541.051, 861.253 1539.887, 869.500 1538.013 C 872.250 1537.388, 877.425 1536.245, 881 1535.472 C 886.947 1534.187, 912.928 1525.537, 927.500 1519.991 C 930.800 1518.735, 935.300 1516.485, 937.500 1514.990 C 939.700 1513.496, 943.300 1511.347, 945.500 1510.215 C 951.970 1506.885, 960.564 1497.347, 962.992 1490.802 C 965.004 1485.376, 965.025 1484.946, 963.432 1481.802 C 958.856 1472.771, 954.791 1471.114, 932.482 1469.185 C 927.523 1468.756, 922.798 1467.988, 921.982 1467.479 C 921.167 1466.970, 915.775 1466.226, 910 1465.827 C 898.820 1465.053, 890.388 1463.790, 885.500 1462.157 C 883.850 1461.605, 880.784 1460.869, 878.688 1460.520 C 873.275 1459.620, 865 1451.597, 865 1447.249 C 865 1445.534, 864.498 1442.863, 863.883 1441.315 C 863.269 1439.767, 862.372 1435.350, 861.889 1431.500 C 861.406 1427.650, 860.621 1422.250, 860.145 1419.500 C 859.270 1414.452, 858.894 1412.790, 854.944 1396.500 C 853.743 1391.550, 852.378 1384.575, 851.909 1381 C 851.041 1374.377, 850.344 1371.131, 847.509 1360.500 C 846.629 1357.200, 845.540 1352.250, 845.089 1349.500 C 844.637 1346.750, 843.783 1342.475, 843.191 1340 C 840.914 1330.490, 839.660 1324.405, 839.480 1322 C 839.377 1320.625, 838.804 1317.700, 838.206 1315.500 C 835.569 1305.803, 834.568 1301.443, 834.801 1300.673 C 834.939 1300.218, 834.540 1298.193, 833.915 1296.173 C 832.789 1292.532, 831.934 1288.073, 830.142 1276.500 C 829.631 1273.200, 828.715 1269.233, 828.106 1267.685 C 827.498 1266.137, 827 1263.128, 827 1261 C 827 1258.872, 826.538 1255.916, 825.974 1254.431 C 825.409 1252.946, 824.714 1249.430, 824.428 1246.616 C 824.142 1243.802, 823.672 1240.825, 823.383 1240 C 822.765 1238.233, 821.149 1226.593, 820.052 1216 C 819.624 1211.875, 818.763 1207.233, 818.137 1205.685 C 817.512 1204.137, 817 1199.778, 817 1196 C 817 1192.222, 816.508 1187.863, 815.907 1186.315 C 815.306 1184.767, 814.623 1177.043, 814.390 1169.152 C 814.156 1161.260, 813.523 1153.977, 812.983 1152.967 C 811.706 1150.581, 811.705 1125.169, 812.982 1121.399 C 813.522 1119.805, 814.138 1115.800, 814.349 1112.500 C 814.561 1109.200, 815.244 1104.362, 815.867 1101.750 C 818.507 1090.682, 819.247 1087.390, 819.521 1085.500 C 820.331 1079.917, 829.404 1050.747, 831.962 1045.500 C 832.498 1044.400, 833.851 1041.138, 834.968 1038.250 C 836.086 1035.362, 837.914 1030.638, 839.032 1027.750 C 840.149 1024.862, 841.496 1021.600, 842.025 1020.500 C 842.553 1019.400, 843.677 1016.494, 844.522 1014.043 C 845.366 1011.591, 847.346 1007.541, 848.922 1005.043 C 850.497 1002.544, 852.119 999.375, 852.526 998 C 853.617 994.318, 866.822 968.149, 869.935 963.500 C 871.408 961.300, 874.601 955.450, 877.031 950.500 C 879.461 945.550, 882.641 939.700, 884.096 937.500 C 885.552 935.300, 889.961 927.200, 893.893 919.500 C 897.826 911.800, 902.632 903.475, 904.572 901 C 906.513 898.525, 909.766 894.277, 911.801 891.560 C 913.835 888.844, 917.570 884.344, 920.101 881.560 C 930.911 869.670, 943.367 847.794, 946.591 835.039 C 947.643 830.876, 949.923 826.060, 953.001 821.498 C 955.629 817.604, 958.485 812.412, 959.347 809.959 C 961.440 804.011, 965.725 793.459, 968.088 788.434 C 969.140 786.198, 970.013 783.498, 970.029 782.434 C 970.045 781.370, 970.974 777.350, 972.094 773.500 C 973.214 769.650, 974.471 762.874, 974.887 758.442 C 975.304 754.010, 975.994 749.819, 976.421 749.128 C 976.848 748.437, 977.140 742.595, 977.069 736.146 C 976.978 727.892, 977.393 723.138, 978.470 720.085 C 979.756 716.440, 980 708.604, 980 670.939 C 980 640.977, 979.639 625.197, 978.910 623.315 C 978.310 621.767, 977.408 616.900, 976.906 612.500 C 975.762 602.467, 974.509 594.788, 973.072 589 C 970.562 578.892, 970 575.790, 970 572.051 C 970 569.894, 969.509 566.863, 968.908 565.315 C 967.738 562.298, 966.241 554.201, 965.060 544.500 C 964.659 541.200, 963.806 537.233, 963.165 535.685 C 961.364 531.333, 961.570 484.827, 963.416 479 C 964.200 476.525, 965.609 471.804, 966.548 468.509 C 969.775 457.179, 972.563 452.840, 983.812 441.642 C 994.938 430.566, 1004.510 423.437, 1016.475 417.316 C 1020.311 415.354, 1025.261 412.234, 1027.475 410.383 C 1029.689 408.532, 1033.495 405.551, 1035.932 403.759 C 1040.430 400.452, 1044.672 395.092, 1056.318 378 C 1063.792 367.031, 1075 345.178, 1075 341.574 C 1075 340.223, 1075.450 338.840, 1076 338.500 C 1076.609 338.123, 1077 330.530, 1077 319.063 C 1077 303.556, 1076.736 300.026, 1075.500 299 C 1074.675 298.315, 1074 297.173, 1074 296.463 C 1074 294.419, 1065.770 287.711, 1059.356 284.527 C 1056.135 282.929, 1051.619 280.356, 1049.320 278.810 C 1047.021 277.265, 1044.771 275.997, 1044.320 275.994 C 1043.484 275.988, 1042.516 275.489, 1033.178 270.259 C 1026.004 266.241, 1007.693 248.005, 1003.295 240.500 C 1001.362 237.200, 998.142 232.632, 996.140 230.349 C 994.138 228.066, 990.785 224.133, 988.689 221.609 C 982.143 213.727, 958.916 197.418, 947.500 192.688 C 934.827 187.438, 920.675 183, 916.554 182.985 C 914.324 182.977, 910.700 182.321, 908.500 181.529 C 906.300 180.736, 902.960 180.068, 901.079 180.044 C 896.017 179.979, 889.853 173.205, 887.256 164.853 C 881.698 146.978, 881.192 141.574, 880.196 89.500 C 879.700 63.556, 879.117 51.659, 878.244 49.685 C 877.560 48.137, 877 45.406, 877 43.618 C 877 39.820, 871.930 29.283, 868.883 26.750 C 867.198 25.348, 864.848 25, 857.085 25 C 848.068 25, 847.067 25.206, 842.737 27.952 M 1.762 1818.707 C 3.006 1818.946, 4.806 1818.937, 5.762 1818.687 C 6.718 1818.437, 5.700 1818.241, 3.500 1818.252 C 1.300 1818.263, 0.518 1818.468, 1.762 1818.707 M 13.784 1818.738 C 16.689 1818.941, 21.189 1818.939, 23.784 1818.734 C 26.378 1818.528, 24 1818.363, 18.500 1818.365 C 13 1818.368, 10.878 1818.536, 13.784 1818.738 " stroke="none" fill="black" fill-rule="evenodd"/>
</svg>