<?xml version="1.0" standalone="no"?>
<!DOCTYPE svg PUBLIC "-//W3C//DTD SVG 20010904//EN"
 "http://www.w3.org/TR/2001/REC-SVG-20010904/DTD/svg10.dtd">
<svg version="1.0" xmlns="http://www.w3.org/2000/svg"
 width="1299.000000pt" height="1009.000000pt" viewBox="0 0 1299.000000 1009.000000"
 preserveAspectRatio="xMidYMid meet">

<g transform="translate(0.000000,1009.000000) scale(0.100000,-0.100000)"
fill="#000000" stroke="none">
<path d="M5995 9259 c-480 -23 -993 -101 -1484 -225 -180 -46 -522 -156 -671
-217 -677 -276 -1135 -621 -1367 -1030 -44 -78 -98 -224 -117 -319 -21 -103
-21 -324 0 -426 21 -101 38 -151 86 -247 44 -89 73 -126 93 -118 8 2 32 35 54
72 35 60 71 111 143 206 27 35 245 255 303 305 22 19 83 67 135 105 52 38 97
72 100 76 3 3 49 33 103 65 234 141 249 149 567 296 25 11 54 24 65 28 11 4
31 12 45 17 14 6 38 16 54 22 16 7 70 25 120 42 50 16 99 34 108 39 10 6 25
10 33 10 8 0 23 4 33 10 9 5 58 21 107 35 50 14 104 30 120 35 84 26 514 115
680 140 435 68 916 94 1390 75 170 -6 450 -29 550 -44 33 -5 101 -15 150 -22
82 -11 428 -77 600 -114 150 -32 606 -179 732 -236 24 -10 45 -19 47 -19 8 0
135 -59 284 -132 136 -66 197 -100 287 -157 22 -14 50 -31 63 -38 23 -13 219
-153 261 -188 260 -213 454 -443 576 -681 35 -70 50 -91 63 -87 23 6 131 161
180 258 74 148 102 277 102 471 0 237 -62 425 -214 649 -75 111 -295 334 -426
432 -529 394 -1286 679 -2200 826 -102 17 -117 19 -291 41 -382 50 -986 68
-1464 45z"/>
<path d="M6310 7499 c-438 -14 -836 -68 -1180 -161 -41 -11 -88 -24 -105 -28
-121 -31 -420 -161 -490 -213 -28 -21 -14 -30 27 -18 185 55 247 70 305 76 37
3 127 17 198 30 391 72 663 95 1105 95 265 0 439 -8 640 -31 396 -44 735 -113
960 -194 423 -153 619 -315 637 -524 6 -72 -9 -115 -65 -189 l-26 -34 50 8
c125 18 356 190 406 302 14 30 20 67 20 125 1 71 -2 89 -26 136 -86 169 -351
328 -726 436 -127 37 -314 81 -405 96 -27 4 -77 13 -110 19 -325 57 -767 83
-1215 69z"/>
<path d="M2180 6960 c0 -33 30 -411 40 -496 45 -420 156 -895 292 -1254 100
-265 111 -289 251 -565 252 -492 660 -989 1102 -1341 122 -97 242 -184 254
-184 5 0 14 -6 20 -14 15 -18 275 -176 289 -176 6 0 12 -3 14 -8 4 -10 317
-164 388 -191 30 -12 64 -26 75 -30 11 -5 43 -17 70 -27 28 -10 55 -20 60 -24
6 -3 30 -12 55 -20 25 -7 85 -26 135 -42 110 -36 256 -72 395 -98 58 -11 128
-24 155 -29 154 -29 362 -50 592 -58 210 -7 235 -3 326 57 313 206 756 408
1064 484 83 21 263 44 396 52 l109 6 -5 32 c-3 17 -13 65 -22 106 -20 93 -15
235 10 300 58 145 187 235 399 277 167 33 595 16 826 -32 168 -36 539 -168
755 -269 54 -26 108 -49 120 -52 28 -7 118 28 290 112 145 70 224 114 272 150
17 13 35 24 38 24 4 0 39 23 79 52 329 239 577 543 706 866 23 56 53 153 67
215 25 103 27 130 27 342 1 252 -7 311 -66 489 -27 82 -44 124 -96 236 -100
215 -309 465 -552 660 -68 55 -314 220 -327 220 -6 0 -17 8 -26 18 -13 14 -17
39 -17 105 0 51 -4 87 -10 87 -5 0 -10 -8 -10 -18 0 -29 -38 -131 -81 -217
-143 -284 -402 -553 -759 -788 -146 -95 -187 -118 -395 -222 -1028 -510 -2489
-725 -3910 -576 -80 9 -151 18 -380 51 -119 17 -303 51 -440 81 -206 46 -205
46 -270 64 -33 9 -75 21 -92 26 -427 117 -805 268 -1153 460 -126 69 -381 244
-452 309 -9 8 -45 40 -80 70 -214 185 -409 463 -483 689 -20 63 -45 112 -45
91z m8558 -984 c231 -184 396 -447 441 -701 22 -127 23 -179 7 -270 -60 -321
-253 -580 -611 -822 -236 -159 -731 -341 -879 -324 l-49 6 25 30 c106 127 328
441 328 462 0 6 4 13 8 15 24 10 233 400 309 578 118 276 220 590 288 890 10
41 24 94 31 118 8 23 14 49 14 57 0 25 19 17 88 -39z"/>
<path d="M6210 6924 c-19 -2 -82 -9 -140 -15 -198 -20 -363 -55 -530 -109 -85
-28 -210 -88 -210 -101 0 -6 4 -8 10 -4 10 6 127 36 215 54 33 7 78 16 100 21
146 31 696 38 955 11 230 -23 468 -72 575 -116 17 -7 55 -23 85 -36 93 -39
192 -109 228 -163 26 -39 32 -58 32 -100 0 -28 -7 -63 -14 -78 -15 -28 -14
-28 15 -28 38 0 106 40 163 95 34 33 46 53 55 95 16 75 6 112 -46 170 -120
133 -386 229 -798 286 -104 14 -610 28 -695 18z"/>
<path d="M5960 6545 c-185 -22 -369 -68 -378 -95 -2 -5 -13 -10 -25 -10 -11 0
-18 -3 -15 -6 4 -3 50 4 105 15 145 30 261 41 419 41 277 0 464 -38 647 -132
90 -47 120 -82 127 -152 3 -27 10 -51 16 -53 18 -6 104 58 104 77 0 11 5 22
10 25 6 3 10 23 10 45 0 172 -538 302 -1020 245z"/>
<path d="M2290 4951 c-572 -233 -1031 -515 -1345 -828 -129 -128 -216 -236
-302 -372 -164 -261 -208 -401 -207 -661 0 -167 7 -214 61 -380 19 -60 25 -74
59 -145 28 -58 140 -245 153 -255 3 -3 19 -23 36 -45 83 -114 224 -252 441
-432 53 -44 334 -232 409 -273 33 -18 76 -43 95 -55 54 -33 247 -132 340 -173
222 -98 303 -133 350 -148 30 -9 60 -20 65 -24 6 -4 80 -31 165 -59 85 -29
164 -56 175 -61 25 -10 65 -23 135 -43 30 -8 93 -27 140 -40 47 -14 108 -30
135 -37 28 -6 75 -18 105 -26 74 -20 128 -34 170 -44 19 -5 62 -15 95 -23 33
-8 123 -27 200 -41 77 -15 160 -31 185 -36 25 -5 117 -21 205 -35 88 -14 187
-30 220 -35 99 -16 263 -38 375 -50 58 -6 146 -15 195 -21 393 -42 1249 -68
1630 -48 83 4 213 10 290 13 243 8 724 54 975 92 52 8 127 19 165 24 39 5 77
11 85 14 8 3 74 15 145 26 155 24 273 46 335 60 25 6 59 14 75 16 59 10 321
75 355 88 19 8 76 26 125 41 50 15 101 31 115 35 14 5 72 22 130 40 143 42
396 128 475 160 11 4 47 18 80 30 70 26 333 141 414 181 55 27 56 27 30 37
-15 6 -58 15 -95 21 -205 32 -525 111 -749 186 -67 23 -73 23 -135 9 -118 -26
-403 -82 -495 -98 -205 -35 -526 -78 -789 -106 -94 -10 -108 -15 -240 -80
-157 -77 -253 -111 -466 -162 -291 -72 -415 -89 -625 -90 -382 -2 -634 106
-689 295 l-12 42 -94 12 c-52 7 -151 19 -220 28 -69 8 -152 20 -185 25 -33 6
-132 22 -220 36 -310 49 -507 93 -933 209 -116 32 -312 97 -512 170 -653 241
-1204 603 -1478 973 -186 252 -261 475 -249 737 14 284 128 522 386 805 28 30
51 61 51 69 0 8 -19 55 -41 105 -23 50 -54 118 -69 151 -15 33 -42 99 -60 148
-23 59 -38 87 -49 87 -9 0 -59 -18 -111 -39z"/>
<path d="M8761 3659 c-225 -22 -367 -94 -428 -217 -26 -53 -28 -66 -28 -172 1
-91 5 -129 23 -184 28 -87 36 -96 81 -96 96 -1 236 -53 310 -117 93 -79 124
-228 81 -393 -38 -150 -39 -139 27 -202 101 -96 225 -187 297 -219 12 -5 50
-27 85 -49 34 -22 65 -40 66 -40 2 0 43 -18 92 -41 48 -23 138 -57 198 -76 61
-20 119 -39 130 -43 23 -9 189 -52 285 -74 104 -23 169 -36 335 -66 33 -6 138
-16 233 -22 178 -12 366 -3 478 23 140 32 189 48 284 92 102 46 144 86 191
183 36 72 43 96 47 163 7 128 -29 242 -124 386 -67 101 -139 175 -284 290
-436 347 -1123 690 -1635 818 -220 55 -522 78 -744 56z m-136 -566 c44 -13 89
-28 100 -32 30 -12 146 -51 180 -61 17 -4 68 -20 115 -35 47 -15 99 -31 115
-35 130 -36 237 -63 277 -70 27 -5 52 -12 58 -15 6 -3 31 -10 58 -15 26 -5
101 -20 167 -35 151 -32 217 -45 280 -55 362 -55 629 -119 780 -185 17 -7 59
-25 95 -40 158 -66 530 -275 530 -297 0 -15 -20 -7 -142 52 -158 78 -310 140
-428 175 -30 9 -64 20 -75 25 -44 17 -196 60 -305 85 -63 14 -133 30 -155 35
-22 5 -96 21 -165 35 -69 14 -143 30 -165 35 -84 19 -182 41 -230 51 -27 6
-66 15 -85 19 -64 15 -145 32 -190 41 -153 27 -379 95 -595 177 -172 66 -367
160 -359 174 6 9 30 4 139 -29z"/>
<path d="M11946 3001 c-78 -96 -226 -235 -351 -331 -58 -45 -105 -83 -105 -86
0 -2 16 -29 36 -60 20 -31 50 -85 66 -120 16 -35 35 -64 41 -64 17 1 154 178
211 273 27 45 64 115 83 155 60 130 109 302 85 302 -5 0 -35 -31 -66 -69z"/>
<path d="M8025 2915 c-122 -13 -219 -29 -265 -45 -14 -4 -52 -16 -85 -25 -183
-52 -523 -201 -750 -329 -220 -125 -499 -326 -586 -422 -107 -120 -169 -263
-169 -394 0 -143 68 -231 230 -299 76 -32 184 -57 318 -72 161 -18 387 3 667
61 22 5 81 20 130 33 298 82 381 116 604 247 247 145 482 434 586 720 34 92
46 252 24 327 -18 66 -86 133 -164 162 -128 48 -308 60 -540 36z m565 -422 c0
-10 -193 -103 -212 -103 -8 0 -22 -6 -33 -13 -11 -8 -29 -16 -40 -20 -11 -3
-54 -17 -95 -32 -119 -43 -304 -93 -465 -125 -33 -6 -76 -15 -95 -20 -19 -5
-73 -16 -120 -25 -47 -9 -98 -20 -115 -25 -16 -4 -57 -13 -90 -20 -300 -62
-636 -156 -717 -200 -10 -6 -22 -10 -28 -10 -6 0 -47 -18 -93 -41 -104 -52
-127 -61 -127 -50 0 15 126 90 271 162 207 103 324 139 659 199 48 9 171 32
320 61 25 5 74 15 110 24 36 8 99 22 140 31 41 9 78 18 82 20 4 3 58 17 120
33 62 16 127 35 143 41 17 7 44 16 60 21 17 4 89 28 160 53 129 44 165 53 165
39z"/>
</g>
</svg>
