<?xml version="1.0" standalone="no"?>
<!DOCTYPE svg PUBLIC "-//W3C//DTD SVG 20010904//EN"
 "http://www.w3.org/TR/2001/REC-SVG-20010904/DTD/svg10.dtd">
<svg version="1.0" xmlns="http://www.w3.org/2000/svg"
 width="1523.000000pt" height="1526.000000pt" viewBox="0 0 1523.000000 1526.000000"
 preserveAspectRatio="xMidYMid meet">

<g transform="translate(0.000000,1526.000000) scale(0.100000,-0.100000)"
fill="#000000" stroke="none">
<path d="M6790 15250 c-9 -4 -56 -13 -105 -18 -50 -6 -108 -15 -130 -21 -22
-6 -60 -11 -85 -11 -25 0 -74 -6 -110 -14 -36 -8 -99 -20 -140 -26 -201 -30
-387 -72 -435 -97 -11 -6 -65 -20 -120 -32 -102 -21 -178 -41 -250 -65 -22 -8
-67 -22 -100 -32 -76 -22 -230 -86 -303 -126 -186 -102 -223 -117 -389 -158
-67 -17 -154 -44 -193 -61 -94 -40 -445 -215 -495 -248 -22 -14 -56 -34 -76
-46 -312 -173 -670 -413 -938 -627 -25 -20 -86 -68 -136 -107 -49 -38 -105
-84 -124 -102 -18 -18 -71 -65 -116 -104 -122 -107 -480 -461 -571 -566 -43
-50 -117 -132 -162 -183 -46 -50 -96 -109 -110 -131 -15 -21 -38 -51 -51 -65
-13 -14 -35 -43 -50 -65 -14 -22 -40 -56 -58 -75 -17 -19 -47 -57 -67 -85 -66
-93 -141 -200 -146 -210 -3 -5 -37 -57 -76 -115 -38 -58 -94 -145 -124 -195
-29 -49 -63 -106 -76 -125 -54 -84 -179 -315 -262 -483 -129 -262 -202 -420
-202 -437 0 -7 -6 -24 -13 -38 -33 -64 -63 -140 -92 -228 -13 -40 -28 -80 -34
-90 -28 -52 -83 -211 -122 -354 -16 -58 -48 -179 -72 -270 -25 -91 -59 -219
-77 -285 -18 -66 -36 -145 -40 -175 -4 -30 -13 -80 -19 -110 -36 -161 -41
-187 -41 -215 0 -17 -7 -62 -15 -100 -8 -39 -15 -101 -15 -140 0 -38 -5 -88
-11 -110 -20 -74 -32 -378 -33 -795 -1 -493 10 -814 30 -887 8 -28 14 -85 14
-125 0 -41 7 -97 15 -124 8 -27 15 -66 15 -87 0 -21 6 -66 14 -100 8 -34 19
-89 25 -122 19 -110 112 -513 147 -635 8 -30 24 -84 34 -120 10 -36 24 -87 30
-115 13 -56 46 -156 59 -183 29 -59 53 -115 72 -167 23 -64 27 -74 57 -145 32
-79 50 -123 78 -200 34 -95 242 -530 308 -645 19 -33 46 -83 59 -111 14 -29
47 -87 75 -130 27 -44 60 -98 73 -121 69 -120 204 -329 219 -338 5 -3 30 -36
55 -73 25 -37 71 -101 101 -142 29 -41 73 -102 96 -135 47 -68 128 -165 197
-240 26 -27 61 -70 78 -95 39 -57 656 -677 726 -729 29 -22 91 -75 139 -118
48 -44 128 -108 178 -144 51 -35 126 -91 168 -124 41 -33 114 -86 161 -117 47
-31 106 -71 131 -90 25 -18 72 -51 104 -73 33 -22 70 -47 82 -55 12 -8 60 -37
106 -64 45 -28 134 -81 197 -118 62 -37 118 -68 123 -68 8 0 42 -15 203 -91
60 -29 187 -96 259 -138 45 -26 256 -119 371 -163 44 -17 116 -45 160 -63 44
-17 100 -37 125 -44 25 -7 59 -17 75 -22 17 -6 84 -29 150 -51 66 -22 135 -46
153 -54 18 -8 43 -14 55 -14 12 0 42 -6 67 -14 25 -8 68 -21 96 -30 29 -9 61
-16 72 -16 12 0 43 -9 70 -19 26 -11 70 -22 98 -26 27 -3 78 -12 114 -20 36
-8 119 -26 184 -40 111 -25 233 -42 465 -65 52 -6 102 -12 110 -15 42 -12 249
-24 427 -24 650 1 1183 9 1208 19 26 9 169 27 392 49 44 4 85 11 91 14 5 3 59
16 119 27 149 29 333 68 369 80 17 5 48 12 70 15 22 4 60 13 85 20 372 111
531 163 625 202 33 14 94 36 135 49 41 13 136 48 210 79 74 31 152 62 173 70
47 18 243 115 312 156 28 16 59 33 70 38 120 52 465 243 590 326 109 72 252
169 340 230 172 120 290 204 300 212 6 5 44 35 85 68 41 33 93 77 115 99 22
21 81 71 130 111 107 86 721 702 758 760 14 22 57 76 96 120 109 122 126 143
196 240 36 50 91 122 122 162 30 39 70 94 87 121 17 28 54 83 81 123 28 41 66
102 85 136 19 34 65 107 101 161 72 107 183 302 194 342 4 14 11 30 16 36 14
18 186 365 207 420 11 27 54 122 96 211 42 90 76 170 76 178 0 9 6 28 14 43
28 56 142 407 176 547 12 50 25 95 29 100 18 25 44 112 57 192 7 48 21 111 29
138 19 61 63 276 75 365 5 36 14 81 20 100 5 19 10 53 10 75 0 22 7 65 15 95
8 30 15 79 15 109 0 30 7 82 15 116 14 52 15 135 10 586 -3 288 -6 574 -7 634
-1 61 2 166 6 235 7 101 6 140 -8 204 -9 43 -16 103 -16 134 0 30 -6 89 -14
131 -8 42 -22 121 -31 176 -9 55 -21 120 -26 145 -5 25 -34 160 -64 300 -103
484 -221 842 -445 1350 -15 36 -39 90 -51 120 -55 131 -240 489 -335 645 -111
185 -271 442 -304 490 -23 33 -274 374 -287 390 -5 6 -39 49 -76 97 -37 48
-100 122 -141 165 -41 43 -89 97 -105 121 -47 64 -521 535 -656 652 -66 57
-122 106 -125 110 -3 4 -54 44 -115 90 -60 46 -132 102 -160 125 -330 276
-1012 684 -1520 911 -55 25 -108 49 -117 55 -10 5 -23 9 -29 9 -6 0 -25 6 -42
14 -89 40 -272 116 -280 116 -5 0 -23 6 -40 14 -18 7 -45 19 -61 25 -44 18
-203 68 -335 106 -64 18 -154 44 -201 58 -78 23 -294 77 -450 111 -36 8 -105
20 -155 27 -49 6 -108 16 -130 21 -49 11 -199 35 -315 49 -47 5 -101 14 -120
19 -45 13 -1659 13 -1680 0z m1255 -1220 c99 -5 212 -14 250 -20 39 -5 108
-14 155 -20 217 -28 363 -52 425 -71 17 -5 57 -13 90 -18 67 -11 136 -26 210
-46 28 -8 79 -21 115 -30 152 -38 674 -214 785 -264 22 -11 74 -34 115 -52 99
-43 534 -264 568 -287 15 -11 56 -35 92 -54 64 -35 265 -159 286 -176 6 -5 42
-31 80 -57 66 -46 306 -227 438 -330 35 -27 88 -72 118 -100 30 -27 88 -80
129 -116 104 -93 372 -362 444 -445 33 -38 78 -89 100 -114 110 -122 177 -207
330 -415 173 -236 276 -390 304 -452 6 -12 29 -52 52 -90 22 -37 68 -117 101
-178 32 -60 72 -132 88 -160 16 -27 38 -72 49 -100 10 -27 42 -97 71 -155 112
-229 254 -621 360 -1000 14 -49 34 -137 55 -240 72 -348 72 -353 114 -685 20
-154 23 -223 28 -575 4 -311 2 -381 -17 -565 -30 -302 -37 -361 -48 -413 -6
-26 -27 -135 -48 -242 -36 -192 -62 -305 -103 -447 -12 -40 -21 -83 -21 -95 0
-13 -7 -36 -15 -52 -9 -16 -20 -46 -25 -65 -21 -85 -42 -153 -65 -215 -14 -37
-25 -74 -25 -84 0 -10 -11 -40 -24 -68 -13 -27 -32 -74 -41 -104 -10 -30 -35
-93 -56 -139 -22 -46 -39 -87 -39 -92 0 -18 -151 -327 -292 -599 -77 -149
-168 -303 -223 -380 -30 -41 -54 -79 -54 -84 -1 -5 -12 -24 -26 -42 -14 -18
-25 -35 -25 -39 0 -3 -25 -42 -55 -86 -30 -44 -55 -82 -55 -85 0 -2 -24 -33
-52 -68 -29 -34 -82 -105 -118 -157 -36 -51 -94 -123 -130 -160 -36 -36 -94
-101 -130 -145 -58 -70 -234 -258 -345 -369 -151 -150 -409 -370 -575 -490
-22 -16 -59 -45 -81 -62 -35 -28 -149 -107 -235 -163 -13 -8 -40 -27 -61 -41
-152 -105 -516 -310 -612 -344 -23 -8 -55 -24 -71 -35 -16 -11 -57 -31 -92
-44 -35 -14 -76 -31 -93 -39 -69 -34 -142 -67 -149 -67 -5 0 -22 -6 -39 -14
-89 -40 -131 -56 -148 -56 -10 0 -20 -4 -24 -9 -3 -5 -20 -13 -38 -16 -42 -9
-114 -31 -202 -61 -116 -40 -432 -119 -615 -153 -30 -6 -118 -20 -195 -31 -77
-11 -171 -24 -210 -30 -330 -48 -1145 -51 -1480 -5 -55 7 -136 16 -180 20 -87
6 -160 17 -305 45 -52 10 -124 24 -160 30 -36 7 -101 20 -145 30 -44 10 -132
29 -195 41 -63 12 -131 31 -150 40 -19 10 -72 25 -118 33 -46 9 -91 20 -100
25 -9 4 -34 12 -56 15 -21 4 -35 11 -30 16 12 11 145 40 183 40 34 0 166 66
224 113 22 16 58 50 80 74 l42 44 120 -27 c134 -30 231 -49 320 -64 33 -5 96
-16 140 -24 476 -87 1178 -99 1685 -30 266 36 617 101 678 125 13 5 32 9 42 9
11 0 48 9 82 20 35 10 122 36 193 56 72 20 135 40 141 45 7 5 49 22 95 38 87
30 182 68 369 148 48 20 447 220 487 243 18 11 58 33 90 51 210 114 601 387
788 549 22 20 63 53 90 75 28 21 68 56 90 76 94 87 311 297 349 338 22 24 52
54 65 65 13 12 32 34 41 49 10 15 48 60 87 100 83 87 169 191 243 296 30 43
74 99 98 126 41 47 152 208 152 221 0 4 17 30 38 58 21 28 47 65 58 82 10 18
35 56 55 85 19 30 57 92 83 139 26 47 54 96 62 110 8 14 36 66 62 115 27 50
56 104 65 120 25 45 64 131 97 213 16 39 41 96 54 125 29 62 96 233 96 246 0
5 15 45 33 88 19 43 46 119 61 168 15 50 34 106 41 125 7 19 20 60 28 90 8 30
24 89 35 130 117 426 172 868 172 1395 0 601 -60 1031 -220 1565 -54 180 -144
448 -170 505 -5 11 -50 117 -100 235 -81 190 -120 271 -205 425 -36 66 -123
218 -142 250 -10 16 -29 48 -43 71 -26 43 -87 138 -121 186 -11 15 -32 50 -48
77 -38 65 -242 330 -389 506 -155 187 -493 528 -671 678 -174 148 -483 385
-580 447 -39 25 -115 73 -167 108 -53 34 -98 62 -100 62 -1 0 -29 15 -61 34
-115 66 -161 91 -368 196 -115 58 -257 124 -315 147 -218 85 -247 96 -315 120
-38 13 -84 31 -102 39 -17 8 -37 14 -44 14 -7 0 -31 6 -54 14 -75 27 -210 68
-265 81 -30 7 -86 21 -125 30 -72 17 -157 36 -235 53 -25 6 -90 18 -145 27
-55 9 -122 20 -150 25 -27 5 -81 12 -120 15 -38 4 -124 13 -190 22 -174 22
-810 22 -1030 -1 -305 -31 -551 -72 -785 -131 -110 -27 -186 -48 -229 -61 -25
-8 -54 -14 -65 -14 -21 0 -405 -128 -501 -167 -27 -11 -111 -44 -185 -73 -120
-47 -433 -200 -626 -306 -238 -131 -574 -347 -614 -395 -3 -3 -16 -12 -30 -19
-43 -23 -168 -119 -294 -225 -39 -34 -84 -71 -101 -84 -178 -136 -639 -615
-831 -863 -154 -199 -344 -466 -344 -483 0 -3 -17 -32 -38 -63 -78 -116 -293
-511 -346 -637 -21 -50 -42 -94 -46 -100 -6 -9 -59 -144 -125 -320 -23 -61
-119 -361 -136 -425 -45 -171 -98 -401 -105 -455 -3 -22 -11 -76 -19 -120 -70
-403 -82 -963 -30 -1480 13 -129 22 -198 49 -380 7 -51 61 -317 89 -440 45
-194 70 -295 83 -330 8 -22 21 -67 29 -100 17 -74 57 -195 97 -295 17 -41 39
-103 48 -137 27 -92 106 -275 173 -398 21 -38 61 -119 90 -180 28 -60 64 -132
80 -160 44 -74 77 -134 104 -187 13 -26 27 -50 32 -53 8 -4 210 -306 246 -366
20 -33 93 -125 119 -148 14 -14 26 -29 26 -35 0 -6 28 -44 63 -83 34 -40 79
-94 101 -120 53 -66 365 -395 390 -412 12 -8 48 -39 81 -70 156 -145 365 -321
445 -375 30 -20 89 -61 130 -91 139 -101 242 -170 389 -259 186 -112 529 -288
550 -281 14 4 16 56 14 532 -2 500 -2 1262 0 1603 0 85 0 360 -1 610 -1 250
-1 621 -1 825 l1 369 -34 29 c-227 196 -347 345 -457 572 -104 213 -145 352
-181 605 -45 312 -10 773 79 1049 12 35 21 69 21 76 0 16 61 169 100 253 17
35 30 66 30 69 0 22 142 212 207 275 160 159 317 222 532 215 127 -4 198 -19
279 -60 52 -26 150 -97 196 -141 61 -59 179 -231 236 -343 36 -73 135 -368
155 -463 43 -209 56 -290 70 -422 17 -166 19 -331 5 -428 -5 -36 -12 -92 -16
-125 -10 -91 -48 -249 -85 -355 -6 -19 -17 -51 -24 -70 -55 -156 -165 -360
-245 -455 -101 -118 -145 -162 -232 -227 -31 -24 -61 -54 -67 -68 -7 -17 -10
-641 -10 -1925 1 -1949 1 -1980 -37 -2120 -23 -88 -28 -100 -69 -170 -50 -86
-80 -116 -159 -160 -59 -33 -69 -35 -153 -35 -63 0 -110 6 -153 20 -77 25
-284 126 -408 200 -52 30 -127 73 -168 95 -40 23 -79 46 -86 53 -7 7 -17 12
-23 12 -5 0 -64 36 -130 80 -66 44 -124 80 -129 80 -6 0 -35 19 -65 43 -31 24
-74 54 -96 67 -22 13 -69 47 -105 75 -36 28 -85 64 -109 80 -25 15 -72 51
-106 79 -34 28 -92 76 -130 106 -38 30 -96 79 -129 109 -34 30 -97 86 -141
125 -99 89 -362 352 -423 426 -26 30 -73 85 -107 121 -65 71 -137 159 -227
278 -32 42 -65 85 -73 96 -19 25 -94 136 -120 178 -10 18 -52 78 -92 134 -40
56 -73 106 -73 110 0 5 -14 31 -32 59 -18 27 -44 72 -59 99 -14 28 -44 84 -66
125 -22 41 -47 89 -56 105 -20 36 -172 380 -215 485 -16 41 -51 125 -76 185
-41 99 -81 222 -131 405 -10 36 -23 83 -31 105 -7 22 -18 65 -24 95 -6 30 -16
66 -21 80 -9 25 -47 199 -76 345 -23 119 -41 236 -58 375 -8 69 -17 135 -20
147 -5 22 -16 137 -36 388 -18 226 -12 790 11 1025 11 113 25 223 30 245 6 22
15 72 20 110 25 192 125 611 195 815 20 58 47 143 61 190 14 46 31 98 39 115
7 16 30 71 50 120 40 97 48 116 92 215 16 36 41 90 54 120 65 148 232 463 322
610 172 278 371 566 475 690 12 14 70 83 129 155 259 311 593 639 898 881 265
210 276 219 325 248 25 15 77 49 115 77 161 116 352 229 615 362 85 44 171 87
190 98 136 71 471 206 645 259 50 15 101 33 115 38 27 11 244 73 345 98 33 9
83 21 110 29 46 12 94 22 280 60 90 18 231 42 320 54 39 5 104 14 145 20 138
18 394 42 485 44 244 7 548 6 710 -3z m1765 -1766 c53 -24 104 -74 131 -126
19 -36 19 -114 19 -3782 0 -3717 0 -3746 -20 -3799 -39 -103 -156 -179 -267
-172 -72 4 -129 32 -177 86 -78 85 -70 -148 -76 2374 l-5 2260 -55 28 c-222
115 -347 251 -490 535 -203 404 -271 974 -179 1487 10 56 40 177 73 290 32
111 117 300 170 378 14 21 26 40 26 42 0 8 119 161 149 191 102 105 239 189
357 219 89 22 285 16 344 -11z m-3118 -1494 c13 -6 33 -26 46 -45 l22 -35 0
-789 c0 -880 -1 -861 67 -921 61 -54 155 -32 196 44 l22 41 5 815 c5 780 6
816 24 847 24 38 54 53 110 53 55 0 105 -33 122 -80 10 -27 13 -220 13 -835 1
-893 -3 -843 71 -893 28 -19 43 -23 77 -18 53 7 79 22 104 63 20 31 20 50 20
830 0 751 1 801 18 843 26 63 59 85 127 84 43 0 59 -5 80 -25 57 -53 54 -12
54 -880 l0 -801 22 -40 c31 -54 78 -82 130 -75 43 6 91 43 112 87 8 18 12 259
16 847 l5 823 33 32 c30 30 37 33 97 33 59 0 67 -3 96 -32 23 -22 34 -45 40
-80 12 -72 11 -1492 -2 -1683 -10 -162 -24 -261 -55 -370 -8 -30 -21 -80 -30
-110 -29 -105 -118 -310 -183 -420 -97 -167 -209 -297 -321 -376 -43 -30 -82
-60 -89 -67 -8 -10 -11 -620 -13 -2233 -3 -2152 -4 -2220 -22 -2257 -45 -91
-153 -167 -236 -167 -103 0 -245 98 -269 186 -8 27 -11 687 -11 2231 0 1379
-4 2201 -10 2217 -5 14 -42 50 -82 79 -141 105 -302 301 -377 460 -52 112 -81
177 -81 186 0 5 -9 29 -20 54 -25 55 -87 301 -107 422 -13 73 -16 243 -20 914
-3 453 -2 858 2 900 7 70 10 78 45 113 33 33 44 38 83 38 25 0 56 -5 69 -10z"/>
</g>
</svg>
