<?xml version="1.0" encoding="utf-8"?>
<!-- Generator: Adobe Illustrator 24.0.1, SVG Export Plug-In . SVG Version: 6.00 Build 0)  -->
<svg version="1.1" id="Слой_1" xmlns="http://www.w3.org/2000/svg" xmlns:xlink="http://www.w3.org/1999/xlink" x="0px" y="0px"
	 viewBox="0 0 500 500" style="enable-background:new 0 0 500 500;" xml:space="preserve">
<g>
	<g>
		<path d="M126.02,239.61v-17.25l14.78-7.39h2.46l14.78,7.39v2.46l-14.78,7.39h-2.46l-12.32-6.16v14.78L126.02,239.61z
			 M143.27,229.76l12.32-6.16l-12.32-6.16h-2.46l-12.32,6.16l12.32,6.16H143.27z"/>
		<path d="M160.52,239.61v-17.25l14.78-7.39h2.46l14.78,7.39v2.46l-12.32,6.16v1.23l12.32,6.16v2.46l-29.57-14.78v14.78
			L160.52,239.61z M177.77,229.76l12.32-6.16l-12.32-6.16h-2.46l-12.32,6.16l12.32,6.16H177.77z"/>
		<path d="M209.8,247.01l-14.78-7.39v-17.25l14.78-7.39h2.46l14.78,7.39v17.25l-14.78,7.39H209.8z M212.26,244.54l12.32-6.16V223.6
			l-12.32-6.16h-2.46l-12.32,6.16v14.78l12.32,6.16H212.26z"/>
		<path d="M244.3,247.01l-14.78-7.39v-2.46l14.78,7.39v-27.1l-14.78,7.39v-2.46l14.78-7.39h2.46l14.78,7.39v2.46l-14.78-7.39v29.57
			H244.3z"/>
		<path d="M278.79,247.01l-14.78-7.39v-17.25l14.78-7.39h2.46l14.78,7.39v2.46l-14.78-7.39h-2.46l-12.32,6.16v12.32l12.32-6.16h2.46
			v1.23l-14.78,7.39l12.32,6.16h2.46l14.78-7.39v2.46l-14.78,7.39H278.79z"/>
		<path d="M313.29,247.01l-14.78-7.39v-17.25l14.78-7.39h2.46l14.78,7.39v2.46l-14.78-7.39h-2.46l-12.32,6.16v14.78l12.32,6.16h2.46
			l14.78-7.39v2.46l-14.78,7.39H313.29z"/>
		<path d="M347.79,247.01v-29.57L333,224.83v-2.46l14.78-7.39h2.46l14.78,7.39v2.46l-14.78-7.39v29.57H347.79z"/>
	</g>
	<g>
		<path d="M130.47,284.67h-4.96v-30.72h4.3v19.44l1.76-6.76l3.95-12.68h5.31v30.72h-4.34v-21.64l-1.98,7.55L130.47,284.67z"/>
		<path d="M159.87,284.67H155l-0.83-5.57h-5.92l-0.83,5.57h-4.43l4.92-30.72h7.07L159.87,284.67z M148.85,274.93h4.65l-2.33-15.54
			L148.85,274.93z"/>
		<path d="M160.7,253.95h14.92v4.39h-5.05v26.33h-4.83v-26.33h-5.05V253.95z"/>
		<path d="M181.68,273.66v3.95c0,1.11,0.23,1.89,0.68,2.33c0.45,0.44,1.06,0.66,1.82,0.66s1.37-0.22,1.82-0.66
			c0.45-0.44,0.68-1.21,0.68-2.33v-6.63h-4.43v-4.39h4.43v-5.57c0-1.11-0.23-1.89-0.68-2.35c-0.45-0.45-1.06-0.68-1.82-0.68
			s-1.37,0.23-1.82,0.68c-0.45,0.45-0.68,1.24-0.68,2.35v2.9h-4.48v-2.59c0-2.49,0.59-4.4,1.78-5.73c1.19-1.33,2.96-2,5.33-2
			s4.16,0.67,5.38,2c1.21,1.33,1.82,3.24,1.82,5.73v15.98c0,2.49-0.61,4.4-1.82,5.73c-1.21,1.33-3.01,2-5.38,2s-4.16-0.67-5.38-2
			c-1.21-1.33-1.82-3.24-1.82-5.73v-3.64H181.68z"/>
		<path d="M206.3,284.67h-4.83v-30.72h4.83v13.17h5.49v-13.17h4.92v30.72h-4.92v-13.17h-5.49V284.67z"/>
		<path d="M225.18,284.67h-4.96v-30.72h4.3v19.44l1.76-6.76l3.95-12.68h5.31v30.72h-4.34v-21.64l-1.98,7.55L225.18,284.67z"/>
		<path d="M238.08,284.67c0.23-0.58,0.38-1.16,0.44-1.73c0.06-0.57,0.09-1.24,0.09-2v-4.74c0-1.61,0.23-2.98,0.68-4.1
			c0.45-1.13,1.29-1.94,2.52-2.44c-2.11-0.99-3.16-3.07-3.16-6.23v-2.41c0-2.37,0.56-4.14,1.69-5.31c1.13-1.17,2.95-1.76,5.46-1.76
			h7.29v30.72h-4.83v-12.51h-1.67c-1.11,0-1.92,0.29-2.41,0.88c-0.5,0.59-0.75,1.6-0.75,3.03v4.83c0,0.61-0.01,1.13-0.02,1.54
			c-0.02,0.41-0.04,0.75-0.09,1.01c-0.04,0.26-0.1,0.48-0.15,0.66s-0.12,0.37-0.18,0.57H238.08z M245.93,258.34
			c-0.85,0-1.47,0.25-1.87,0.75c-0.4,0.5-0.59,1.3-0.59,2.41v3.03c0,1.23,0.26,2.08,0.77,2.55c0.51,0.47,1.22,0.7,2.13,0.7h1.89
			v-9.44H245.93z"/>
		<path d="M267.31,276.86c-0.29,1.38-0.65,2.58-1.08,3.62c-0.42,1.04-1,1.89-1.71,2.55c-0.72,0.66-1.64,1.13-2.77,1.43
			s-2.52,0.38-4.19,0.26v-4.3c1.23,0.09,2.2-0.03,2.9-0.35c0.7-0.32,1.16-1.04,1.36-2.15l0.04-0.26l-6.67-23.7h4.78l2.63,10.49
			l1.49,7.2l1.14-7.15l2.19-10.53h5.05L267.31,276.86z"/>
		<path d="M291.53,275.77l3.29-21.81h6.71v30.72h-4.56v-22.03l-3.33,22.03h-4.56l-3.6-21.73v21.73h-4.21v-30.72h6.71L291.53,275.77z
			"/>
		<path d="M310.01,284.67h-4.96v-30.72h4.3v19.44l1.76-6.76l3.95-12.68h5.31v30.72h-4.35v-21.64l-1.97,7.55L310.01,284.67z"/>
		<path d="M332.39,281.21h-1.8c-2.43,0-4.24-0.64-5.42-1.93c-1.18-1.29-1.78-3.17-1.78-5.66v-8.38c0-2.49,0.59-4.37,1.78-5.66
			c1.19-1.29,2.99-1.93,5.42-1.93h1.8v-3.69h4.74v3.69h1.8c2.43,0,4.24,0.64,5.42,1.93c1.19,1.29,1.78,3.17,1.78,5.66v8.38
			c0,2.49-0.59,4.38-1.78,5.66c-1.18,1.29-2.99,1.93-5.42,1.93h-1.8v3.47h-4.74V281.21z M332.39,261.9h-1.8
			c-0.76,0-1.35,0.23-1.78,0.68c-0.42,0.45-0.64,1.24-0.64,2.35v9c0,1.11,0.21,1.9,0.64,2.37c0.42,0.47,1.02,0.7,1.78,0.7h1.8V261.9
			z M337.13,261.9v15.1h1.8c0.76,0,1.35-0.23,1.78-0.7c0.42-0.47,0.64-1.26,0.64-2.37v-9c0-1.11-0.21-1.89-0.64-2.35
			c-0.42-0.45-1.02-0.68-1.78-0.68H337.13z"/>
		<path d="M354.34,284.67h-4.96v-30.72h4.3v19.44l1.76-6.76l3.95-12.68h5.31v30.72h-4.35v-21.64l-1.97,7.55L354.34,284.67z"/>
	</g>
</g>
</svg>
